<?xml version="1.0" encoding="UTF-8"?>
<!-- The Best Svg Icon site in the world: iconSvg.co, Visit us! https://iconsvg.co -->
<svg fill="#000000" width="800px" height="800px" version="1.1" viewBox="144 144 512 512" xmlns="http://www.w3.org/2000/svg">
 <path d="m620.41 590.34v-9.2891c-0.023437-4.8672-1.5508-9.6133-4.3672-13.586-2.8164-3.9688-6.7891-6.9766-11.375-8.6133v-111.62c-0.011719-15.301-4.4883-30.262-12.875-43.059-8.3906-12.793-20.332-22.863-34.359-28.969v-34.168c-0.015625-5.1367-1.6953-10.129-4.7891-14.23-3.0938-4.1016-7.4336-7.0898-12.371-8.5195l-21.727-6.2188c-3.0625-9.9492-7.0391-19.594-11.887-28.809l10.941-19.758v-0.003906c2.4766-4.4922 3.4297-9.6641 2.7227-14.742-0.71094-5.082-3.0469-9.7969-6.6562-13.438l-27.711-27.711c-3.6406-3.6094-8.3555-5.9453-13.438-6.6562-5.0781-0.71094-10.25 0.24609-14.746 2.7227l-19.758 10.941c-9.2148-4.8477-18.859-8.8281-28.812-11.887l-6.2188-21.727c-1.4375-4.9297-4.4297-9.2617-8.5273-12.352-4.1016-3.0938-9.0859-4.7812-14.223-4.8125h-39.203c-5.1328 0.03125-10.117 1.7188-14.219 4.8125-4.0977 3.0898-7.0898 7.4219-8.5312 12.352l-6.2188 21.727c-9.9492 3.0586-19.594 7.0391-28.809 11.887l-19.762-10.941c-4.4922-2.4766-9.6641-3.4336-14.742-2.7227-5.082 0.71094-9.7969 3.0469-13.438 6.6562l-27.711 27.711c-3.6094 3.6406-5.9453 8.3555-6.6562 13.434-0.71094 5.082 0.24609 10.254 2.7227 14.746l10.941 19.758v0.003906c-4.8477 9.2148-8.8281 18.859-11.887 28.809l-21.805 6.2188c-4.9219 1.4453-9.2422 4.4414-12.32 8.5391-3.0781 4.1016-4.75 9.0859-4.7656 14.211v39.203c0.019531 5.1406 1.6992 10.133 4.793 14.234 3.0938 4.1016 7.4336 7.0898 12.371 8.5156l21.727 6.2188c3.0586 9.9531 7.0391 19.598 11.887 28.812l-10.941 19.758c-2.4766 4.4961-3.4336 9.668-2.7227 14.746 0.71094 5.082 3.0469 9.7969 6.6562 13.438l27.711 27.711c3.6406 3.6094 8.3555 5.9453 13.434 6.6562 5.082 0.71094 10.254-0.24609 14.746-2.7227l19.758-10.941h0.003906c9.2148 4.8477 18.859 8.8242 28.809 11.887l6.2188 21.727c1.4414 4.9297 4.4336 9.2617 8.5312 12.352 4.1016 3.0938 9.0859 4.7773 14.219 4.8086h39.203c5.1367-0.03125 10.121-1.7148 14.223-4.8086 4.0977-3.0898 7.0898-7.4219 8.5273-12.352l6.2188-21.727c9.9531-3.0625 19.598-7.0391 28.812-11.887l9.6055 5.2734c-9.6016 13.809-15.113 30.043-15.902 46.84-4.6484 1.5938-8.6836 4.5938-11.547 8.5859-2.8672 3.9922-4.4141 8.7773-4.4336 13.691v9.2891c-4.5859 1.6328-8.5586 4.6406-11.375 8.6133-2.8164 3.9727-4.3438 8.7148-4.3672 13.586v15.746c0.011719 4.3398 3.5273 7.8555 7.8711 7.8711h220.42c4.3398-0.015625 7.8555-3.5312 7.8711-7.8711v-15.746c-0.027344-4.8711-1.5508-9.6133-4.3672-13.586-2.8203-3.9727-6.7891-6.9805-11.379-8.6133zm-31.488-143.11v110.21h-141.22c4.9609-56.758 61.715-70.453 64.234-71.004 3.9141-0.89844 6.5234-4.5938 6.0625-8.582-0.40234-3.9961-3.7773-7.0312-7.793-7.0039-12.508-0.29688-24.488-5.0742-33.77-13.461-1.8945-1.8477-4.5742-2.6445-7.1641-2.125l-29.598 5.9023h-0.003906c-2.9766 0.58594-6.0312-0.57422-7.8711-2.9922l-8.9727-11.965c-2.375-3.1328-2.0703-7.5352 0.70703-10.312l67.938-53.293c1.8945-1.5078 2.9961-3.7969 2.9883-6.2188v-23.617c6.2578 0.019531 12.254 2.5117 16.68 6.9375s6.9219 10.422 6.9375 16.68c0.015625 4.3438 3.5312 7.8594 7.8711 7.8711 16.695 0.023438 32.703 6.6641 44.508 18.469 11.805 11.809 18.449 27.812 18.469 44.508zm-175.46-23.379c-2.9648 2.668-5.1914 6.0586-6.457 9.8398-24.34 15.43-54.762 17.742-81.156 6.1641-26.391-11.578-45.293-35.527-50.422-63.887-5.1328-28.359 4.1836-57.414 24.852-77.504 20.664-20.09 49.969-28.578 78.172-22.652 28.203 5.9297 51.609 25.5 62.438 52.211 10.828 26.707 7.6602 57.055-8.457 80.949zm18.027 157.2c0.011719-4.3438 3.5273-7.8594 7.8711-7.8711h157.44c4.3398 0.011718 7.8555 3.5273 7.8711 7.8711v7.8711h-173.18zm188.93 39.359h-204.68v-7.8711c0.011718-4.3438 3.5312-7.8594 7.8711-7.8711h188.93c4.3438 0.011719 7.8594 3.5273 7.8711 7.8711z"/>
</svg>