<svg width="16" height="16" viewBox="0 0 16 16" fill="none" xmlns="http://www.w3.org/2000/svg">
<path d="M8.00017 1.3335C11.6822 1.3335 14.6668 4.31816 14.6668 8.00016C14.6668 11.6822 11.6822 14.6668 8.00017 14.6668C6.78562 14.6687 5.59386 14.3371 4.55483 13.7082L2.5335 14.3028C2.41745 14.337 2.29434 14.3392 2.17711 14.3093C2.05989 14.2794 1.95288 14.2185 1.86734 14.133C1.7818 14.0474 1.72088 13.9404 1.691 13.8232C1.66111 13.706 1.66336 13.5829 1.6975 13.4668L2.29217 11.4455C1.66354 10.4063 1.33195 9.21467 1.3335 8.00016C1.3335 4.31816 4.31817 1.3335 8.00017 1.3335ZM5.66683 7.00016C5.40162 7.00016 5.14726 7.10552 4.95973 7.29306C4.77219 7.48059 4.66683 7.73495 4.66683 8.00016C4.66683 8.26538 4.77219 8.51973 4.95973 8.70727C5.14726 8.89481 5.40162 9.00016 5.66683 9.00016C5.93205 9.00016 6.18641 8.89481 6.37394 8.70727C6.56148 8.51973 6.66683 8.26538 6.66683 8.00016C6.66683 7.73495 6.56148 7.48059 6.37394 7.29306C6.18641 7.10552 5.93205 7.00016 5.66683 7.00016ZM10.3335 7.00016C10.0683 7.00016 9.81393 7.10552 9.62639 7.29306C9.43886 7.48059 9.3335 7.73495 9.3335 8.00016C9.3335 8.26538 9.43886 8.51973 9.62639 8.70727C9.81393 8.89481 10.0683 9.00016 10.3335 9.00016C10.5987 9.00016 10.8531 8.89481 11.0406 8.70727C11.2281 8.51973 11.3335 8.26538 11.3335 8.00016C11.3335 7.73495 11.2281 7.48059 11.0406 7.29306C10.8531 7.10552 10.5987 7.00016 10.3335 7.00016Z" fill="black"/>
</svg>
