<svg width="75" height="75" viewBox="0 0 75 75" fill="none" xmlns="http://www.w3.org/2000/svg">
<path d="M34.701 15V41.6022H41.299V15H34.701ZM21.7355 21.7355C17.5733 25.8977 15 31.6487 15 38C15 50.7026 25.2974 61 38 61C50.7026 61 61 50.7026 61 38C61 31.6487 58.4267 25.8977 54.2645 21.7355L49.6319 26.3681C52.6089 29.3449 54.4498 33.4579 54.4498 38C54.4498 47.0843 47.0842 54.4498 38 54.4498C28.9157 54.4498 21.5502 47.0843 21.5502 38C21.5502 33.4579 23.3911 29.3449 26.3681 26.3681L21.7355 21.7355Z" fill="black"/>
</svg>
