<svg width="35" height="35" viewBox="0 0 35 35" fill="none" xmlns="http://www.w3.org/2000/svg">
<path fill-rule="evenodd" clip-rule="evenodd" d="M4.27393 14.2466C4.27393 8.87409 4.27393 6.18715 5.94365 4.51885C7.61338 2.85055 10.2989 2.84912 15.6714 2.84912H18.5207C23.8932 2.84912 26.5801 2.84912 28.2484 4.51885C29.9167 6.18857 29.9182 8.87409 29.9182 14.2466V19.9453C29.9182 25.3177 29.9182 28.0047 28.2484 29.673C26.5787 31.3413 23.8932 31.3427 18.5207 31.3427H15.6714C10.2989 31.3427 7.61195 31.3427 5.94365 29.673C4.27535 28.0033 4.27393 25.3177 4.27393 19.9453V14.2466ZM8.54797 17.0959C8.54797 15.0814 8.54797 14.0742 9.17482 13.4487C9.79883 12.8219 10.8061 12.8219 12.822 12.8219H21.3701C23.3846 12.8219 24.3918 12.8219 25.0173 13.4487C25.6441 14.0742 25.6441 15.0814 25.6441 17.0959V22.7946C25.6441 24.8091 25.6441 25.8164 25.0173 26.4418C24.3918 27.0687 23.3846 27.0687 21.3701 27.0687H12.822C10.8075 27.0687 9.80026 27.0687 9.17482 26.4418C8.54797 25.8178 8.54797 24.8106 8.54797 22.7946V17.0959ZM9.97264 7.47933C9.68926 7.47933 9.41748 7.5919 9.21709 7.79229C9.01671 7.99267 8.90413 8.26445 8.90413 8.54784C8.90413 8.83123 9.01671 9.10301 9.21709 9.30339C9.41748 9.50378 9.68926 9.61635 9.97264 9.61635H17.096C17.3794 9.61635 17.6512 9.50378 17.8516 9.30339C18.052 9.10301 18.1646 8.83123 18.1646 8.54784C18.1646 8.26445 18.052 7.99267 17.8516 7.79229C17.6512 7.5919 17.3794 7.47933 17.096 7.47933H9.97264Z" fill="black"/>
</svg>
