<svg width="35" height="28" viewBox="0 0 35 28" fill="none" xmlns="http://www.w3.org/2000/svg">
<g clip-path="url(#clip0_1285_664)">
<path d="M10.2856 13.7142C13.6016 13.7142 16.2855 11.0303 16.2855 7.71427C16.2855 4.39825 13.6016 1.71436 10.2856 1.71436C6.96954 1.71436 4.28565 4.39825 4.28565 7.71427C4.28565 11.0303 6.96954 13.7142 10.2856 13.7142ZM14.3998 15.4284H13.9552C12.8409 15.9642 11.6034 16.2856 10.2856 16.2856C8.96773 16.2856 7.7356 15.9642 6.61598 15.4284H6.17134C2.76425 15.4284 0 18.1927 0 21.5998V23.1426C0 24.5622 1.15177 25.714 2.57139 25.714H17.9997C19.4194 25.714 20.5711 24.5622 20.5711 23.1426V21.5998C20.5711 18.1927 17.8069 15.4284 14.3998 15.4284ZM25.7139 13.7142C28.5532 13.7142 30.8567 11.4106 30.8567 8.5714C30.8567 5.73216 28.5532 3.42862 25.7139 3.42862C22.8747 3.42862 20.5711 5.73216 20.5711 8.5714C20.5711 11.4106 22.8747 13.7142 25.7139 13.7142ZM28.2853 15.4284H28.0817C27.3371 15.6856 26.5496 15.857 25.7139 15.857C24.8782 15.857 24.0907 15.6856 23.3461 15.4284H23.1425C22.0497 15.4284 21.0426 15.7445 20.1586 16.2534C21.4658 17.6623 22.2854 19.532 22.2854 21.5998V23.6569C22.2854 23.7748 22.2586 23.8873 22.2533 23.9998H31.7138C33.1335 23.9998 34.2852 22.848 34.2852 21.4284C34.2852 18.1123 31.6013 15.4284 28.2853 15.4284Z" fill="black"/>
</g>
<defs>
<clipPath id="clip0_1285_664">
<rect width="34.2852" height="27.4282" fill="white"/>
</clipPath>
</defs>
</svg>
