<svg width="47" height="34" viewBox="0 0 47 34" fill="none" xmlns="http://www.w3.org/2000/svg">
<g clip-path="url(#clip0_1285_677)">
<path d="M24.2 13C27.5437 13 30.25 10.0924 30.25 6.5C30.25 2.90759 27.5437 0 24.2 0C20.8563 0 18.15 2.90759 18.15 6.5C18.15 10.0924 20.8563 13 24.2 13ZM28.3486 14.8571H27.9002C26.7766 15.4375 25.5288 15.7857 24.2 15.7857C22.8712 15.7857 21.6288 15.4375 20.4998 14.8571H20.0514C16.6159 14.8571 13.8286 17.8518 13.8286 21.5429V23.2143C13.8286 24.7522 14.99 26 16.4215 26H31.9785C33.41 26 34.5714 24.7522 34.5714 23.2143V21.5429C34.5714 17.8518 31.7841 14.8571 28.3486 14.8571ZM39.7571 13C42.62 13 44.9428 10.5045 44.9428 7.42857C44.9428 4.35268 42.62 1.85714 39.7571 1.85714C36.8941 1.85714 34.5714 4.35268 34.5714 7.42857C34.5714 10.5045 36.8941 13 39.7571 13ZM42.3499 14.8571H42.1447C41.3938 15.1357 40.5998 15.3214 39.7571 15.3214C38.9144 15.3214 38.1203 15.1357 37.3695 14.8571H37.1642C36.0623 14.8571 35.0467 15.1996 34.1554 15.7509C35.4735 17.2772 36.3 19.3027 36.3 21.5429V23.7714C36.3 23.8991 36.2729 24.021 36.2675 24.1429H45.8071C47.2385 24.1429 48.3999 22.8951 48.3999 21.3571C48.3999 17.7647 45.6936 14.8571 42.3499 14.8571Z" fill="black"/>
<path d="M24.1999 13C20.8562 13 18.1499 10.0924 18.1499 6.5C18.1499 2.90759 20.8562 0 24.1999 0C27.5436 0 30.2499 2.90759 30.2499 6.5C30.2499 10.0924 27.5436 13 24.1999 13ZM20.0513 14.8571H20.4997C21.6233 15.4375 22.8711 15.7857 24.1999 15.7857C25.5287 15.7857 26.7711 15.4375 27.9001 14.8571H28.3485C31.784 14.8571 34.5713 17.8518 34.5713 21.5429V23.2143C34.5713 24.7522 33.4099 26 31.9784 26H16.4214C14.9899 26 13.8285 24.7522 13.8285 23.2143V21.5429C13.8285 17.8518 16.6158 14.8571 20.0513 14.8571ZM8.64282 13C5.77989 13 3.45713 10.5045 3.45713 7.42857C3.45713 4.35268 5.77989 1.85714 8.64282 1.85714C11.5058 1.85714 13.8285 4.35268 13.8285 7.42857C13.8285 10.5045 11.5058 13 8.64282 13ZM6.04997 14.8571H6.25524C7.00609 15.1357 7.80015 15.3214 8.64282 15.3214C9.4855 15.3214 10.2796 15.1357 11.0304 14.8571H11.2357C12.3376 14.8571 13.3532 15.1996 14.2445 15.7509C12.9264 17.2772 12.1 19.3027 12.1 21.5429V23.7714C12.1 23.8991 12.127 24.021 12.1324 24.1429H2.59285C1.16138 24.1429 -8.34465e-07 22.8951 -8.34465e-07 21.3571C-8.34465e-07 17.7647 2.70628 14.8571 6.04997 14.8571Z" fill="black"/>
</g>
<defs>
<clipPath id="clip0_1285_677">
<rect width="47" height="34" fill="white"/>
</clipPath>
</defs>
</svg>
