<svg width="38" height="38" viewBox="0 0 38 38" fill="none" xmlns="http://www.w3.org/2000/svg">
<path d="M19 13.4663C15.9363 13.4663 13.4663 15.96 13.4663 19C13.4663 22.04 15.96 24.5337 19 24.5337C22.04 24.5337 24.5337 22.04 24.5337 19C24.5337 15.96 22.04 13.4663 19 13.4663ZM35.625 19C35.625 16.6962 35.625 14.44 35.5062 12.1363C35.3875 9.47625 34.77 7.10125 32.8225 5.1775C30.875 3.23 28.5238 2.6125 25.8638 2.49375C23.56 2.375 21.3038 2.375 19 2.375C16.6962 2.375 14.44 2.375 12.1363 2.49375C9.47625 2.6125 7.10125 3.23 5.1775 5.1775C3.23 7.125 2.6125 9.47625 2.49375 12.1363C2.375 14.44 2.375 16.6962 2.375 19C2.375 21.3038 2.375 23.56 2.49375 25.8638C2.6125 28.5238 3.23 30.8987 5.1775 32.8225C7.125 34.77 9.47625 35.3875 12.1363 35.5062C14.44 35.625 16.6962 35.625 19 35.625C21.3038 35.625 23.56 35.625 25.8638 35.5062C28.5238 35.3875 30.8987 34.77 32.8225 32.8225C34.77 30.875 35.3875 28.5238 35.5062 25.8638C35.6487 23.5838 35.625 21.3038 35.625 19ZM19 27.5263C14.2737 27.5263 10.4737 23.7263 10.4737 19C10.4737 14.2737 14.2737 10.4737 19 10.4737C23.7263 10.4737 27.5263 14.2737 27.5263 19C27.5263 23.7263 23.7263 27.5263 19 27.5263ZM27.8825 12.1125C26.79 12.1125 25.8875 11.2338 25.8875 10.1175C25.8875 9.00125 26.7662 8.1225 27.8825 8.1225C28.9987 8.1225 29.8775 9.00125 29.8775 10.1175C29.8835 10.3776 29.836 10.6363 29.738 10.8773C29.6399 11.1183 29.4934 11.3367 29.3075 11.5187C29.1254 11.7047 28.9071 11.8512 28.666 11.9492C28.425 12.0473 28.1664 12.0948 27.9062 12.0888L27.8825 12.1125Z" fill="white"/>
</svg>
