<svg width="33" height="33" viewBox="0 0 33 33" fill="none" xmlns="http://www.w3.org/2000/svg">
<path d="M5.48762 17.8347H13.719C14.4735 17.8347 15.0909 17.2173 15.0909 16.4628V5.48762C15.0909 4.73308 14.4735 4.11572 13.719 4.11572H5.48762C4.73308 4.11572 4.11572 4.73308 4.11572 5.48762V16.4628C4.11572 17.2173 4.73308 17.8347 5.48762 17.8347ZM5.48762 28.8098H13.719C14.4735 28.8098 15.0909 28.1925 15.0909 27.4379V21.9504C15.0909 21.1958 14.4735 20.5785 13.719 20.5785H5.48762C4.73308 20.5785 4.11572 21.1958 4.11572 21.9504V27.4379C4.11572 28.1925 4.73308 28.8098 5.48762 28.8098ZM19.2066 28.8098H27.4379C28.1925 28.8098 28.8098 28.1925 28.8098 27.4379V16.4628C28.8098 15.7082 28.1925 15.0909 27.4379 15.0909H19.2066C18.452 15.0909 17.8347 15.7082 17.8347 16.4628V27.4379C17.8347 28.1925 18.452 28.8098 19.2066 28.8098ZM17.8347 5.48762V10.9752C17.8347 11.7297 18.452 12.3471 19.2066 12.3471H27.4379C28.1925 12.3471 28.8098 11.7297 28.8098 10.9752V5.48762C28.8098 4.73308 28.1925 4.11572 27.4379 4.11572H19.2066C18.452 4.11572 17.8347 4.73308 17.8347 5.48762Z" fill="black"/>
</svg>
