<svg width="38" height="38" viewBox="0 0 38 38" fill="none" xmlns="http://www.w3.org/2000/svg">
<path d="M18.9998 3.1665C10.2598 3.1665 3.1665 10.2598 3.1665 18.9998C3.1665 27.7398 10.2598 34.8332 18.9998 34.8332C27.7398 34.8332 34.8332 27.7398 34.8332 18.9998C34.8332 10.2598 27.7398 3.1665 18.9998 3.1665ZM26.3465 13.9332C26.109 16.4348 25.0798 22.5148 24.5573 25.3173C24.3357 26.5048 23.8923 26.9007 23.4807 26.9482C22.5623 27.0273 21.8657 26.3465 20.979 25.7607C19.5857 24.8423 18.794 24.2723 17.4482 23.3857C15.8807 22.3565 16.894 21.7865 17.7965 20.8682C18.034 20.6307 22.0873 16.9415 22.1665 16.609C22.1775 16.5586 22.176 16.5064 22.1622 16.4567C22.1484 16.407 22.1227 16.3615 22.0873 16.324C21.9923 16.2448 21.8657 16.2765 21.7548 16.2923C21.6123 16.324 19.3957 17.7965 15.0732 20.7098C14.4398 21.1373 13.8698 21.359 13.3632 21.3432C12.7932 21.3273 11.7165 21.0265 10.909 20.7573C9.9115 20.4407 9.13567 20.2665 9.199 19.7123C9.23067 19.4273 9.6265 19.1423 10.3707 18.8415C14.994 16.8307 18.0657 15.5007 19.6015 14.8673C24.0032 13.0307 24.9057 12.714 25.5073 12.714C25.634 12.714 25.9348 12.7457 26.1248 12.904C26.2832 13.0307 26.3307 13.2048 26.3465 13.3315C26.3307 13.4265 26.3623 13.7115 26.3465 13.9332Z" fill="white"/>
</svg>
