<svg width="33" height="33" viewBox="0 0 33 33" fill="none" xmlns="http://www.w3.org/2000/svg">
<path fill-rule="evenodd" clip-rule="evenodd" d="M8.32822 0.55C10.9536 0.256667 13.6938 0 16.5 0C19.3062 0 22.0464 0.256667 24.6718 0.55C26.6672 0.778801 28.526 1.6778 29.9442 3.10001C31.3624 4.52222 32.2561 6.38351 32.4793 8.37956C32.7604 10.9927 33 13.7133 33 16.5C33 19.2867 32.7604 22.0073 32.4793 24.6204C32.2561 26.6165 31.3624 28.4778 29.9442 29.9C28.526 31.3222 26.6672 32.2212 24.6718 32.45C22.0464 32.7433 19.3062 33 16.5 33C13.6938 33 10.9536 32.7433 8.32822 32.45C6.33281 32.2212 4.47405 31.3222 3.05583 29.9C1.63762 28.4778 0.743852 26.6165 0.520667 24.6204C0.239556 22.0073 0 19.2867 0 16.5C0 13.7133 0.239556 10.9927 0.520667 8.37956C0.743852 6.38351 1.63762 4.52222 3.05583 3.10001C4.47405 1.6778 6.33281 0.778801 8.32822 0.55ZM19.756 6.43378C19.6716 6.06802 19.4555 5.74613 19.149 5.52952C18.8424 5.31291 18.4668 5.21674 18.0939 5.25935C17.721 5.30196 17.3768 5.48038 17.127 5.76056C16.8772 6.04074 16.7393 6.40308 16.7396 6.77844V20.9C16.7396 21.6503 16.5171 22.3838 16.1002 23.0077C15.6833 23.6316 15.0908 24.1179 14.3976 24.405C13.7044 24.6921 12.9416 24.7673 12.2056 24.6209C11.4697 24.4745 10.7937 24.1132 10.2632 23.5826C9.7326 23.052 9.37128 22.3761 9.2249 21.6401C9.07851 20.9042 9.15364 20.1414 9.44078 19.4482C9.72793 18.755 10.2142 18.1625 10.8381 17.7456C11.462 17.3287 12.1954 17.1062 12.9458 17.1062C13.351 17.1062 13.7396 16.9453 14.0261 16.6587C14.3126 16.3722 14.4736 15.9836 14.4736 15.5784C14.4736 15.1733 14.3126 14.7847 14.0261 14.4981C13.7396 14.2116 13.351 14.0507 12.9458 14.0507C11.5911 14.0507 10.2669 14.4524 9.14049 15.205C8.01412 15.9576 7.13623 17.0273 6.61782 18.2789C6.09941 19.5304 5.96377 20.9076 6.22805 22.2362C6.49234 23.5649 7.14467 24.7853 8.10257 25.7432C9.06046 26.7011 10.2809 27.3534 11.6095 27.6177C12.9382 27.882 14.3154 27.7464 15.5669 27.228C16.8185 26.7095 17.8882 25.8317 18.6408 24.7053C19.3934 23.5789 19.7951 22.2547 19.7951 20.9V12.3689C21.2618 13.6156 23.1538 14.3 25.3733 14.3C25.7785 14.3 26.1671 14.139 26.4536 13.8525C26.7401 13.566 26.9011 13.1774 26.9011 12.7722C26.9011 12.367 26.7401 11.9784 26.4536 11.6919C26.1671 11.4054 25.7785 11.2444 25.3733 11.2444C23.76 11.2444 22.5622 10.7458 21.6798 9.96111C20.7802 9.15933 20.1129 7.96644 19.756 6.43378Z" fill="white"/>
</svg>
