<svg width="172" height="38" viewBox="0 0 172 38" fill="none" xmlns="http://www.w3.org/2000/svg">
<path d="M10.16 29.92C8.8 29.92 7.45334 29.7733 6.12 29.48C4.81334 29.16 3.62667 28.7333 2.56 28.2C1.49334 27.64 0.640004 27.0267 4.27663e-06 26.36L1.44 24.04C2.08 24.7067 2.86667 25.2933 3.8 25.8C4.76 26.3067 5.81334 26.7067 6.96 27C8.10667 27.2667 9.25334 27.4 10.4 27.4C12.0533 27.4 13.4933 27.1867 14.72 26.76C15.9733 26.3333 16.9467 25.7067 17.64 24.88C18.3333 24.0533 18.68 23.0533 18.68 21.88C18.68 20.9467 18.4133 20.2 17.88 19.64C17.3467 19.0533 16.6533 18.5867 15.8 18.24C14.9467 17.8667 14 17.5333 12.96 17.24C11.92 16.9467 10.88 16.6267 9.84 16.28C8.8 15.9333 7.84 15.5067 6.96 15C6.10667 14.4933 5.41334 13.8267 4.88 13C4.37334 12.1733 4.12 11.1333 4.12 9.88001C4.12 8.12001 4.6 6.61334 5.56 5.36001C6.52 4.08001 7.84 3.10667 9.52 2.44001C11.2 1.77334 13.1333 1.44001 15.32 1.44001C16.9733 1.44001 18.56 1.64001 20.08 2.04001C21.6267 2.44001 22.9333 3.04001 24 3.84001L22.76 6.24001C21.7467 5.49334 20.5867 4.93334 19.28 4.56001C17.9733 4.16001 16.6 3.96001 15.16 3.96001C13.5333 3.96001 12.1067 4.18667 10.88 4.64001C9.65334 5.09334 8.69334 5.74667 8 6.60001C7.33334 7.42667 7 8.42667 7 9.60001C7 10.5333 7.25334 11.2933 7.76 11.88C8.29334 12.4667 8.98667 12.9467 9.84 13.32C10.72 13.6933 11.68 14.04 12.72 14.36C13.76 14.6533 14.8 14.9733 15.84 15.32C16.88 15.64 17.8267 16.0533 18.68 16.56C19.56 17.04 20.2667 17.68 20.8 18.48C21.3333 19.2533 21.6 20.2533 21.6 21.48C21.6 23.2667 21.1067 24.8 20.12 26.08C19.1333 27.3333 17.7733 28.2933 16.04 28.96C14.3333 29.6 12.3733 29.92 10.16 29.92ZM40.4494 8.48001C42.3427 8.48001 43.8894 8.85334 45.0894 9.60001C46.316 10.32 47.156 11.3733 47.6094 12.76C48.0894 14.1467 48.1294 15.8 47.7294 17.72L45.3294 29.68H42.4894L44.8894 17.68C45.316 15.6 45.0894 13.9733 44.2094 12.8C43.356 11.6267 41.836 11.04 39.6494 11.04C37.4094 11.04 35.5427 11.6533 34.0494 12.88C32.5827 14.1067 31.596 15.9467 31.0894 18.4L28.8494 29.68H26.0094L31.9294 6.19888e-06H34.7694L31.8094 14.72L31.0894 13.68C32.1027 11.8667 33.4094 10.5467 35.0094 9.72001C36.636 8.89334 38.4494 8.48001 40.4494 8.48001ZM62.4006 29.88C60.454 29.88 58.7606 29.52 57.3206 28.8C55.9073 28.0533 54.8006 27.0133 54.0006 25.68C53.2273 24.3467 52.8406 22.7733 52.8406 20.96C52.8406 18.56 53.3606 16.4267 54.4006 14.56C55.4406 12.6667 56.8806 11.1867 58.7206 10.12C60.5606 9.02667 62.654 8.48001 65.0006 8.48001C66.9473 8.48001 68.6273 8.84001 70.0406 9.56001C71.4806 10.28 72.5873 11.3067 73.3606 12.64C74.1606 13.9733 74.5606 15.5467 74.5606 17.36C74.5606 19.76 74.0406 21.9067 73.0006 23.8C71.9606 25.6667 70.5206 27.1467 68.6806 28.24C66.8673 29.3333 64.774 29.88 62.4006 29.88ZM62.6006 27.36C64.3606 27.36 65.9206 26.9467 67.2806 26.12C68.6673 25.2667 69.7473 24.0933 70.5206 22.6C71.3206 21.1067 71.7206 19.4133 71.7206 17.52C71.7206 15.44 71.1073 13.8267 69.8806 12.68C68.6806 11.5333 66.9873 10.96 64.8006 10.96C63.0673 10.96 61.5073 11.3867 60.1206 12.24C58.734 13.0933 57.6406 14.2667 56.8406 15.76C56.0673 17.2267 55.6806 18.92 55.6806 20.84C55.6806 22.8933 56.2806 24.4933 57.4806 25.64C58.7073 26.7867 60.414 27.36 62.6006 27.36ZM89.7988 29.88C87.9854 29.88 86.4254 29.56 85.1188 28.92C83.8388 28.2533 82.8521 27.3067 82.1588 26.08C81.4921 24.8267 81.1454 23.32 81.1188 21.56C81.1188 18.9733 81.5854 16.7067 82.5188 14.76C83.4521 12.7867 84.7721 11.2533 86.4788 10.16C88.1854 9.04001 90.1988 8.48001 92.5188 8.48001C94.3321 8.48001 95.9188 8.84001 97.2788 9.56001C98.6654 10.2533 99.7454 11.2667 100.519 12.6C101.319 13.9333 101.719 15.52 101.719 17.36C101.719 19.1733 101.425 20.84 100.839 22.36C100.252 23.88 99.4121 25.2 98.3188 26.32C97.2521 27.44 95.9988 28.32 94.5588 28.96C93.1188 29.5733 91.5321 29.88 89.7988 29.88ZM76.5588 37.44L82.2788 8.68001H84.9988L83.7988 14.72L82.6388 18.92L82.1988 23.32L79.3988 37.44H76.5588ZM89.7588 27.36C91.5188 27.36 93.0788 26.9467 94.4388 26.12C95.7988 25.2667 96.8654 24.0933 97.6388 22.6C98.4388 21.1067 98.8388 19.4133 98.8388 17.52C98.8388 15.44 98.2388 13.8267 97.0388 12.68C95.8388 11.5333 94.1321 10.96 91.9188 10.96C90.1854 10.96 88.6254 11.3867 87.2388 12.24C85.8788 13.0933 84.7988 14.2667 83.9988 15.76C83.2254 17.2267 82.8388 18.92 82.8388 20.84C82.8388 22.8933 83.4388 24.4933 84.6388 25.64C85.8388 26.7867 87.5454 27.36 89.7588 27.36Z" fill="#10B981"/>
<path d="M116.908 29.88C115.095 29.88 113.535 29.56 112.228 28.92C110.948 28.2533 109.961 27.3067 109.268 26.08C108.601 24.8267 108.255 23.32 108.228 21.56C108.228 18.9733 108.695 16.7067 109.628 14.76C110.561 12.7867 111.881 11.2533 113.588 10.16C115.295 9.04001 117.308 8.48001 119.628 8.48001C121.441 8.48001 123.028 8.84001 124.388 9.56001C125.775 10.2533 126.855 11.2667 127.628 12.6C128.428 13.9333 128.828 15.52 128.828 17.36C128.828 19.1733 128.535 20.84 127.948 22.36C127.361 23.88 126.521 25.2 125.428 26.32C124.361 27.44 123.108 28.32 121.668 28.96C120.228 29.5733 118.641 29.88 116.908 29.88ZM103.668 37.44L109.388 8.68001H112.108L110.908 14.72L109.748 18.92L109.308 23.32L106.508 37.44H103.668ZM116.868 27.36C118.628 27.36 120.188 26.9467 121.548 26.12C122.908 25.2667 123.975 24.0933 124.748 22.6C125.548 21.1067 125.948 19.4133 125.948 17.52C125.948 15.44 125.348 13.8267 124.148 12.68C122.948 11.5333 121.241 10.96 119.028 10.96C117.295 10.96 115.735 11.3867 114.348 12.24C112.988 13.0933 111.908 14.2667 111.108 15.76C110.335 17.2267 109.948 18.92 109.948 20.84C109.948 22.8933 110.548 24.4933 111.748 25.64C112.948 26.7867 114.655 27.36 116.868 27.36ZM141.938 29.88C139.938 29.88 138.191 29.52 136.698 28.8C135.231 28.0533 134.098 27.0133 133.298 25.68C132.524 24.3467 132.138 22.76 132.138 20.92C132.138 18.52 132.644 16.3867 133.658 14.52C134.671 12.6533 136.058 11.1867 137.818 10.12C139.578 9.02667 141.564 8.48001 143.778 8.48001C145.644 8.48001 147.258 8.84001 148.618 9.56001C149.978 10.2533 151.031 11.2667 151.778 12.6C152.551 13.9333 152.938 15.5333 152.938 17.4C152.938 17.8267 152.911 18.2667 152.858 18.72C152.804 19.1467 152.738 19.56 152.658 19.96H134.218L134.578 17.84H151.338L150.178 18.64C150.444 16.96 150.324 15.5467 149.818 14.4C149.311 13.2533 148.524 12.3867 147.458 11.8C146.418 11.1867 145.164 10.88 143.698 10.88C141.991 10.88 140.471 11.3067 139.138 12.16C137.804 12.9867 136.764 14.1467 136.018 15.64C135.271 17.1067 134.898 18.8267 134.898 20.8C134.898 22.9067 135.498 24.5333 136.698 25.68C137.924 26.8 139.751 27.36 142.178 27.36C143.591 27.36 144.898 27.1333 146.098 26.68C147.298 26.2 148.284 25.5467 149.058 24.72L150.338 26.76C149.351 27.7467 148.111 28.52 146.618 29.08C145.151 29.6133 143.591 29.88 141.938 29.88ZM156.478 29.68L160.638 8.68001H163.358L162.158 14.88L161.838 13.8C162.771 11.96 163.998 10.6133 165.518 9.76001C167.065 8.90667 168.985 8.48001 171.278 8.48001L170.758 11.24C170.625 11.24 170.491 11.24 170.358 11.24C170.251 11.2133 170.118 11.2 169.958 11.2C167.718 11.2 165.865 11.8533 164.398 13.16C162.958 14.44 161.971 16.3867 161.438 19L159.318 29.68H156.478Z" fill="black"/>
</svg>
